<svg width="24" height="24" viewBox="0 0 24 24" fill="none" xmlns="http://www.w3.org/2000/svg">
<path d="M16.778 17.4658L17.2038 17.7279L17.4658 17.302L18.4258 15.742L18.6908 15.3114L18.2572 15.0513L13.1 11.9569V6V5.5H12.6H10.8H10.3V6V13.2V13.4794L10.538 13.6258L16.778 17.4658ZM22.6246 7.59914L23.0866 7.4078L22.6246 7.59914C23.2025 8.99438 23.5 10.4898 23.5 12C23.5 15.05 22.2884 17.9751 20.1317 20.1317C17.9751 22.2884 15.05 23.5 12 23.5C10.4898 23.5 8.99438 23.2025 7.59914 22.6246L7.4078 23.0866L7.59914 22.6246C6.2039 22.0467 4.93615 21.1996 3.86827 20.1317C1.7116 17.9751 0.5 15.05 0.5 12C0.5 8.95001 1.7116 6.02494 3.86827 3.86827C4.93615 2.8004 6.2039 1.95331 7.59914 1.37539C8.99438 0.797456 10.4898 0.5 12 0.5C13.5102 0.5 15.0056 0.797456 16.4009 1.37539C17.7961 1.95331 19.0639 2.8004 20.1317 3.86827C21.1996 4.93615 22.0467 6.2039 22.6246 7.59914Z" stroke="black"/>
</svg>
